
<svg xmlns="http://www.w3.org/2000/svg" viewBox="0 0 24 24" fill="none" stroke="#D4AF37" stroke-width="2" stroke-linecap="round" stroke-linejoin="round">
  <path d="M2,21V19C2,17.9 2.9,17 4,17H4.5C5.5,17 6.2,16.1 6,15.1C5.9,14.7 5.6,14.4 5.2,14.2L4,13.6C3.4,13.3 3,12.6 3,12C3,11.4 3.4,10.7 4,10.4L5.2,9.8C5.6,9.6 5.9,9.3 6,8.9C6.2,7.9 5.5,7 4.5,7H4C2.9,7 2,6.1 2,5V3H22V5C22,6.1 21.1,7 20,7H19.5C18.5,7 17.8,7.9 18,8.9C18.1,9.3 18.4,9.6 18.8,9.8L20,10.4C20.6,10.7 21,11.4 21,12C21,12.6 20.6,13.3 20,13.6L18.8,14.2C18.4,14.4 18.1,14.7 18,15.1C17.8,16.1 18.5,17 19.5,17H20C21.1,17 22,17.9 22,19V21H2M5,3V5H9.5C10.9,5 12,6.1 12,7.5C12,8.9 10.9,10 9.5,10C8.1,10 7,8.9 7,7.5V7H5V7.5C5,10 7,12 9.5,12C12,12 14,10 14,7.5C14,5 12,3 9.5,3H5Z" fill="#4B2E2B"/>
</svg>
